<?xml version="1.0" encoding="us-ascii" standalone="no"?><svg xmlns="http://www.w3.org/2000/svg" xmlns:xlink="http://www.w3.org/1999/xlink" contentStyleType="text/css" height="1408px" preserveAspectRatio="none" style="width:2349px;height:1408px;background:#FFFFFF;" version="1.1" viewBox="0 0 2349 1408" width="2349px" zoomAndPan="magnify"><defs/><g><text fill="#000000" font-family="Verdana" font-size="22" font-weight="bold" lengthAdjust="spacing" textLength="460" x="940.25" y="37.1182">GDE Website &#8212; Deployment Diagram</text><!--cluster Internet--><g id="cluster_Internet"><path d="M776.869,74.9181 C779.1536,69.5588 784.6123,68.895 788.2026,73.421 C791.6198,67.0633 795.954,66.895 800.104,72.7042 C803.5251,66.3967 807.7642,64.7131 812.8611,71.0078 C816.1029,65.163 819.6391,66.29 823.4267,70.4302 C826.3319,62.9363 830.3201,62.5185 836.2601,67.2425 C840.2326,63.4709 844.6751,63.5892 846.6268,69.4234 C852.0648,63.24 856.751,65.4463 860.119,71.6737 C863.9179,66.1788 867.6587,67.4655 871.001,72.1612 C875.7186,65.6718 879.7767,65.8938 884.0407,72.609 C893.0947,66.647 900.1995,69.4506 901,80.7283 C901.1173,80.7566 901.1556,80.8349 901.0696,80.9325 C907.1722,83.7007 908.2828,89.0471 903.1266,93.638 C908.7969,96.0734 909.4114,100.7085 905.4211,105.081 C912.7486,108.1197 912.5595,112.1053 907.5051,117.2623 C913.6792,120.4234 914.2153,126.032 908.0758,129.7555 C914.0964,134.0493 914.5325,138.7968 907.4618,142.4577 C912.7147,147.6759 910.5315,152.2338 904.4995,154.7275 C909.7101,159.2628 910.621,163.2341 903.6416,166.911 C909.1685,176.8938 906.2759,184.3792 894,184.7283 C895.1698,184.6173 895.7633,185.338 895.3483,186.4605 C892.3707,192.2991 886.5604,191.9985 883.4163,186.6379 C879.9243,193.5051 874.6048,193.6521 870.4685,187.2674 C868.4962,193.2889 864.1518,193.5235 860.2912,189.1089 C856.9219,196.3508 851.797,195.4414 847.2667,190.3335 C843.6128,196.2047 839.7834,195.5343 835.5232,191.0191 C831.312,197.0578 826.625,195.7857 823.1431,190.2397 C818.9882,194.6606 815.6172,193.992 812.3447,189.2048 C807.9586,194.0125 804.4322,193.3803 800.712,188.4123 C796.5795,193.318 790.917,192.4679 788.0816,186.8547 C777.8725,192.8471 769.8722,190.0803 768,177.7283 C768.6259,177.4884 769.0625,177.8326 769.0586,178.4798 C763.318,174.9409 763.5161,170.4033 769.6235,167.4725 C763.4223,165.2068 761.8116,160.0258 766.9821,155.2938 C760.6172,151.3616 760.6912,145.3379 767.3238,141.7333 C761.3452,138.0036 762.0232,133.5639 767.748,130.2672 C761.5652,126.2486 762.8321,121.2895 768.3313,117.8183 C762.9918,115.1193 761.8641,110.1072 767.2383,106.384 C761.2812,100.8608 762.6941,96.8149 769.1068,93.0214 C761.6303,83.8772 763.0172,76.9286 775,73.7283 C776.0294,73.2267 776.986,73.6188 776.869,74.9181 " fill="#FCE4EC" style="stroke:#333333;stroke-width:1.0;"/><text fill="#000000" font-family="Verdana" font-size="12" font-weight="bold" lengthAdjust="spacing" textLength="133" x="768" y="90.7928">Customer / Internet</text></g><!--cluster DockerHost--><g id="cluster_DockerHost"><polygon fill="#E3F2FD" points="21,286.7283,31,276.7283,1951,276.7283,1951,1381.7283,1941,1391.7283,21,1391.7283,21,286.7283" style="stroke:#333333;stroke-width:1.0;"/><line style="stroke:#333333;stroke-width:1.0;" x1="1941" x2="1951" y1="286.7283" y2="276.7283"/><line style="stroke:#333333;stroke-width:1.0;" x1="21" x2="1941" y1="286.7283" y2="286.7283"/><line style="stroke:#333333;stroke-width:1.0;" x1="1941" x2="1941" y1="286.7283" y2="1391.7283"/><text fill="#000000" font-family="Verdana" font-size="12" font-weight="bold" lengthAdjust="spacing" textLength="81" x="941.5" y="301.7928">Docker Host</text><text fill="#000000" font-family="Verdana" font-size="12" font-weight="bold" lengthAdjust="spacing" textLength="190" x="887" y="316.3768">(Linux / Windows / macOS)</text></g><!--cluster GdeNetwork--><g id="cluster_GdeNetwork"><polygon fill="#E3F2FD" points="53,355.7283,63,345.7283,1911,345.7283,1911,1349.7283,1901,1359.7283,53,1359.7283,53,355.7283" style="stroke:#333333;stroke-width:1.0;"/><line style="stroke:#333333;stroke-width:1.0;" x1="1901" x2="1911" y1="355.7283" y2="345.7283"/><line style="stroke:#333333;stroke-width:1.0;" x1="53" x2="1901" y1="355.7283" y2="355.7283"/><line style="stroke:#333333;stroke-width:1.0;" x1="1901" x2="1901" y1="355.7283" y2="1359.7283"/><text fill="#000000" font-family="Verdana" font-size="12" font-weight="bold" lengthAdjust="spacing" textLength="202" x="877" y="370.7928">Docker Network: gde-network</text><text fill="#000000" font-family="Verdana" font-size="12" font-weight="bold" lengthAdjust="spacing" textLength="56" x="950" y="385.3768">(bridge)</text></g><!--cluster FrontendNode--><g id="cluster_FrontendNode"><polygon fill="#E3F2FD" points="825,424.7283,835,414.7283,1479,414.7283,1479,546.7283,1469,556.7283,825,556.7283,825,424.7283" style="stroke:#333333;stroke-width:1.0;"/><line style="stroke:#333333;stroke-width:1.0;" x1="1469" x2="1479" y1="424.7283" y2="414.7283"/><line style="stroke:#333333;stroke-width:1.0;" x1="825" x2="1469" y1="424.7283" y2="424.7283"/><line style="stroke:#333333;stroke-width:1.0;" x1="1469" x2="1469" y1="424.7283" y2="556.7283"/><text fill="#000000" font-family="Verdana" font-size="12" font-weight="bold" lengthAdjust="spacing" textLength="56" x="1120" y="439.7928">frontend</text><text fill="#000000" font-family="Verdana" font-size="12" font-weight="bold" lengthAdjust="spacing" textLength="118" x="1089" y="454.3768">(Nginx container)</text></g><!--cluster BackendNode--><g id="cluster_BackendNode"><polygon fill="#E3F2FD" points="825,663.7283,835,653.7283,1415,653.7283,1415,801.7283,1405,811.7283,825,811.7283,825,663.7283" style="stroke:#333333;stroke-width:1.0;"/><line style="stroke:#333333;stroke-width:1.0;" x1="1405" x2="1415" y1="663.7283" y2="653.7283"/><line style="stroke:#333333;stroke-width:1.0;" x1="825" x2="1405" y1="663.7283" y2="663.7283"/><line style="stroke:#333333;stroke-width:1.0;" x1="1405" x2="1405" y1="663.7283" y2="811.7283"/><text fill="#000000" font-family="Verdana" font-size="12" font-weight="bold" lengthAdjust="spacing" textLength="55" x="1088.5" y="678.7928">backend</text><text fill="#000000" font-family="Verdana" font-size="12" font-weight="bold" lengthAdjust="spacing" textLength="157" x="1037.5" y="693.3768">(Spring Boot container)</text></g><!--cluster PostgresNode--><g id="cluster_PostgresNode"><polygon fill="#E3F2FD" points="1118,955.7283,1128,945.7283,1717,945.7283,1717,1093.7283,1707,1103.7283,1118,1103.7283,1118,955.7283" style="stroke:#333333;stroke-width:1.0;"/><line style="stroke:#333333;stroke-width:1.0;" x1="1707" x2="1717" y1="955.7283" y2="945.7283"/><line style="stroke:#333333;stroke-width:1.0;" x1="1118" x2="1707" y1="955.7283" y2="955.7283"/><line style="stroke:#333333;stroke-width:1.0;" x1="1707" x2="1707" y1="955.7283" y2="1103.7283"/><text fill="#000000" font-family="Verdana" font-size="12" font-weight="bold" lengthAdjust="spacing" textLength="57" x="1385" y="970.7928">postgres</text><text fill="#000000" font-family="Verdana" font-size="12" font-weight="bold" lengthAdjust="spacing" textLength="159" x="1334" y="985.3768">(PostgreSQL container)</text></g><!--cluster PgAdminNode--><g id="cluster_PgAdminNode"><polygon fill="#E3F2FD" points="1455,679.2283,1465,669.2283,1879,669.2283,1879,786.2283,1869,796.2283,1455,796.2283,1455,679.2283" style="stroke:#333333;stroke-width:1.0;"/><line style="stroke:#333333;stroke-width:1.0;" x1="1869" x2="1879" y1="679.2283" y2="669.2283"/><line style="stroke:#333333;stroke-width:1.0;" x1="1455" x2="1869" y1="679.2283" y2="679.2283"/><line style="stroke:#333333;stroke-width:1.0;" x1="1869" x2="1869" y1="679.2283" y2="796.2283"/><text fill="#000000" font-family="Verdana" font-size="12" font-weight="bold" lengthAdjust="spacing" textLength="57" x="1634.5" y="694.2928">pgAdmin</text><text fill="#000000" font-family="Verdana" font-size="12" font-weight="bold" lengthAdjust="spacing" textLength="146" x="1590" y="708.8768">(pgAdmin4 container)</text></g><!--cluster GrafanaNode--><g id="cluster_GrafanaNode"><polygon fill="#E3F2FD" points="225,432.2283,235,422.2283,645,422.2283,645,539.2283,635,549.2283,225,549.2283,225,432.2283" style="stroke:#333333;stroke-width:1.0;"/><line style="stroke:#333333;stroke-width:1.0;" x1="635" x2="645" y1="432.2283" y2="422.2283"/><line style="stroke:#333333;stroke-width:1.0;" x1="225" x2="635" y1="432.2283" y2="432.2283"/><line style="stroke:#333333;stroke-width:1.0;" x1="635" x2="635" y1="432.2283" y2="549.2283"/><text fill="#000000" font-family="Verdana" font-size="12" font-weight="bold" lengthAdjust="spacing" textLength="51" x="405.5" y="447.2928">grafana</text><text fill="#000000" font-family="Verdana" font-size="12" font-weight="bold" lengthAdjust="spacing" textLength="133" x="364.5" y="461.8768">(Grafana container)</text></g><!--cluster PrometheusNode--><g id="cluster_PrometheusNode"><polygon fill="#E3F2FD" points="365,671.2283,375,661.2283,785,661.2283,785,794.2283,775,804.2283,365,804.2283,365,671.2283" style="stroke:#333333;stroke-width:1.0;"/><line style="stroke:#333333;stroke-width:1.0;" x1="775" x2="785" y1="671.2283" y2="661.2283"/><line style="stroke:#333333;stroke-width:1.0;" x1="365" x2="775" y1="671.2283" y2="671.2283"/><line style="stroke:#333333;stroke-width:1.0;" x1="775" x2="775" y1="671.2283" y2="804.2283"/><text fill="#000000" font-family="Verdana" font-size="12" font-weight="bold" lengthAdjust="spacing" textLength="78" x="532" y="686.2928">prometheus</text><text fill="#000000" font-family="Verdana" font-size="12" font-weight="bold" lengthAdjust="spacing" textLength="159" x="491.5" y="700.8768">(Prometheus container)</text></g><!--cluster LokiNode--><g id="cluster_LokiNode"><polygon fill="#E3F2FD" points="137,1194.7283,147,1184.7283,463,1184.7283,463,1317.7283,453,1327.7283,137,1327.7283,137,1194.7283" style="stroke:#333333;stroke-width:1.0;"/><line style="stroke:#333333;stroke-width:1.0;" x1="453" x2="463" y1="1194.7283" y2="1184.7283"/><line style="stroke:#333333;stroke-width:1.0;" x1="137" x2="453" y1="1194.7283" y2="1194.7283"/><line style="stroke:#333333;stroke-width:1.0;" x1="453" x2="453" y1="1194.7283" y2="1327.7283"/><text fill="#000000" font-family="Verdana" font-size="12" font-weight="bold" lengthAdjust="spacing" textLength="24" x="284" y="1209.7928">loki</text><text fill="#000000" font-family="Verdana" font-size="12" font-weight="bold" lengthAdjust="spacing" textLength="108" x="242" y="1224.3768">(Loki container)</text></g><!--cluster AlloyNode--><g id="cluster_AlloyNode"><polygon fill="#E3F2FD" points="136,963.2283,146,953.2283,478,953.2283,478,1086.2283,468,1096.2283,136,1096.2283,136,963.2283" style="stroke:#333333;stroke-width:1.0;"/><line style="stroke:#333333;stroke-width:1.0;" x1="468" x2="478" y1="963.2283" y2="953.2283"/><line style="stroke:#333333;stroke-width:1.0;" x1="136" x2="468" y1="963.2283" y2="963.2283"/><line style="stroke:#333333;stroke-width:1.0;" x1="468" x2="468" y1="963.2283" y2="1096.2283"/><text fill="#000000" font-family="Verdana" font-size="12" font-weight="bold" lengthAdjust="spacing" textLength="32" x="287" y="978.2928">alloy</text><text fill="#000000" font-family="Verdana" font-size="12" font-weight="bold" lengthAdjust="spacing" textLength="113" x="246.5" y="992.8768">(Alloy container)</text></g><!--cluster cAdvisorNode--><g id="cluster_cAdvisorNode"><polygon fill="#E3F2FD" points="518,973.2283,528,963.2283,805,963.2283,805,1076.2283,795,1086.2283,518,1086.2283,518,973.2283" style="stroke:#333333;stroke-width:1.0;"/><line style="stroke:#333333;stroke-width:1.0;" x1="795" x2="805" y1="973.2283" y2="963.2283"/><line style="stroke:#333333;stroke-width:1.0;" x1="518" x2="795" y1="973.2283" y2="973.2283"/><line style="stroke:#333333;stroke-width:1.0;" x1="795" x2="795" y1="973.2283" y2="1086.2283"/><text fill="#000000" font-family="Verdana" font-size="12" font-weight="bold" lengthAdjust="spacing" textLength="56" x="629.5" y="988.2928">cadvisor</text><text fill="#000000" font-family="Verdana" font-size="12" font-weight="bold" lengthAdjust="spacing" textLength="137" x="589" y="1002.8768">(cAdvisor container)</text></g><!--cluster DockerEventsNode--><g id="cluster_DockerEventsNode"><polygon fill="#E3F2FD" points="95,681.2283,105,671.2283,325,671.2283,325,784.2283,315,794.2283,95,794.2283,95,681.2283" style="stroke:#333333;stroke-width:1.0;"/><line style="stroke:#333333;stroke-width:1.0;" x1="315" x2="325" y1="681.2283" y2="671.2283"/><line style="stroke:#333333;stroke-width:1.0;" x1="95" x2="315" y1="681.2283" y2="681.2283"/><line style="stroke:#333333;stroke-width:1.0;" x1="315" x2="315" y1="681.2283" y2="794.2283"/><text fill="#000000" font-family="Verdana" font-size="12" font-weight="bold" lengthAdjust="spacing" textLength="95" x="158.5" y="696.2928">docker-events</text><text fill="#000000" font-family="Verdana" font-size="12" font-weight="bold" lengthAdjust="spacing" textLength="154" x="129" y="710.8768">(Docker CLI container)</text></g><!--entity User--><g id="elem_User"><ellipse cx="833" cy="107.7283" fill="#FFFFFF" rx="8" ry="8" style="stroke:#000000;stroke-width:1.0;"/><path d="M833,115.7283 L833,142.7283 M820,123.7283 L846,123.7283 M833,142.7283 L820,157.7283 M833,142.7283 L846,157.7283 " fill="none" style="stroke:#000000;stroke-width:1.0;"/><text fill="#000000" font-family="Verdana" font-size="14" lengthAdjust="spacing" textLength="106" x="780" y="173.8035">User / Browser</text></g><!--entity NginxArtifact--><g id="elem_NginxArtifact"><rect fill="#FFF3E0" height="37.584" rx="2.5" ry="2.5" style="stroke:#333333;stroke-width:1.0;" width="151" x="1029.5" y="485.2283"/><polygon fill="#FFF3E0" points="1163.5,490.2283,1163.5,504.2283,1175.5,504.2283,1175.5,496.2283,1169.5,490.2283,1163.5,490.2283" style="stroke:#333333;stroke-width:1.0;"/><line style="stroke:#333333;stroke-width:1.0;" x1="1169.5" x2="1169.5" y1="490.2283" y2="496.2283"/><line style="stroke:#333333;stroke-width:1.0;" x1="1175.5" x2="1169.5" y1="496.2283" y2="496.2283"/><text fill="#000000" font-family="Verdana" font-size="12" lengthAdjust="spacing" textLength="121" x="1039.5" y="510.2928">nginx:stable-alpine</text></g><!--entity ReactSPA--><g id="elem_ReactSPA"><rect fill="#FFF3E0" height="52.168" rx="2.5" ry="2.5" style="stroke:#333333;stroke-width:1.0;" width="126" x="868" y="478.2283"/><polygon fill="#FFF3E0" points="977,483.2283,977,497.2283,989,497.2283,989,489.2283,983,483.2283,977,483.2283" style="stroke:#333333;stroke-width:1.0;"/><line style="stroke:#333333;stroke-width:1.0;" x1="983" x2="983" y1="483.2283" y2="489.2283"/><line style="stroke:#333333;stroke-width:1.0;" x1="989" x2="983" y1="489.2283" y2="489.2283"/><text fill="#000000" font-family="Verdana" font-size="12" lengthAdjust="spacing" textLength="63" x="878" y="503.2928">React SPA</text><text fill="#000000" font-family="Verdana" font-size="12" lengthAdjust="spacing" textLength="96" x="878" y="517.8768">(built with Vite)</text></g><g id="elem_GMN9"><path d="M1215.5,475.7283 L1215.5,500.2283 L1180.92,504.2283 L1215.5,508.2283 L1215.5,533.1263 A0,0 0 0 0 1215.5,533.1263 L1454.5,533.1263 A0,0 0 0 0 1454.5,533.1263 L1454.5,485.7283 L1444.5,475.7283 L1215.5,475.7283 A0,0 0 0 0 1215.5,475.7283 " fill="#FFFDE7" style="stroke:#FBC02D;stroke-width:1.0;"/><path d="M1444.5,475.7283 L1444.5,485.7283 L1454.5,485.7283 L1444.5,475.7283 " fill="#FFFDE7" style="stroke:#FBC02D;stroke-width:1.0;"/><text fill="#000000" font-family="Verdana" font-size="13" lengthAdjust="spacing" textLength="107" x="1221.5" y="493.7981">Port 80 exposed</text><text fill="#000000" font-family="Verdana" font-size="13" lengthAdjust="spacing" textLength="150" x="1221.5" y="509.5975">Serves static SPA files</text><text fill="#000000" font-family="Verdana" font-size="13" lengthAdjust="spacing" textLength="218" x="1221.5" y="525.3968">Reverse proxies /api/ to backend</text></g><!--entity JreRuntime--><g id="elem_JreRuntime"><rect fill="#FFF3E0" height="37.584" rx="2.5" ry="2.5" style="stroke:#333333;stroke-width:1.0;" width="169" x="868.5" y="732.2283"/><polygon fill="#FFF3E0" points="1020.5,737.2283,1020.5,751.2283,1032.5,751.2283,1032.5,743.2283,1026.5,737.2283,1020.5,737.2283" style="stroke:#333333;stroke-width:1.0;"/><line style="stroke:#333333;stroke-width:1.0;" x1="1026.5" x2="1026.5" y1="737.2283" y2="743.2283"/><line style="stroke:#333333;stroke-width:1.0;" x1="1032.5" x2="1026.5" y1="743.2283" y2="743.2283"/><text fill="#000000" font-family="Verdana" font-size="12" lengthAdjust="spacing" textLength="139" x="878.5" y="757.2928">eclipse-temurin:21-jre</text></g><!--entity SpringBootApp--><g id="elem_SpringBootApp"><rect fill="#FFF3E0" height="52.168" rx="2.5" ry="2.5" style="stroke:#333333;stroke-width:1.0;" width="133" x="1072.5" y="725.2283"/><polygon fill="#FFF3E0" points="1188.5,730.2283,1188.5,744.2283,1200.5,744.2283,1200.5,736.2283,1194.5,730.2283,1188.5,730.2283" style="stroke:#333333;stroke-width:1.0;"/><line style="stroke:#333333;stroke-width:1.0;" x1="1194.5" x2="1194.5" y1="730.2283" y2="736.2283"/><line style="stroke:#333333;stroke-width:1.0;" x1="1200.5" x2="1194.5" y1="736.2283" y2="736.2283"/><text fill="#000000" font-family="Verdana" font-size="12" lengthAdjust="spacing" textLength="103" x="1082.5" y="750.2928">gde_website.jar</text><text fill="#000000" font-family="Verdana" font-size="12" lengthAdjust="spacing" textLength="95" x="1082.5" y="764.8768">(Spring Boot 4)</text></g><g id="elem_GMN15"><path d="M1241,714.7283 L1241,747.2283 L1205.72,751.2283 L1241,755.2283 L1241,787.9256 A0,0 0 0 0 1241,787.9256 L1391,787.9256 A0,0 0 0 0 1391,787.9256 L1391,724.7283 L1381,714.7283 L1241,714.7283 A0,0 0 0 0 1241,714.7283 " fill="#FFFDE7" style="stroke:#FBC02D;stroke-width:1.0;"/><path d="M1381,714.7283 L1381,724.7283 L1391,724.7283 L1381,714.7283 " fill="#FFFDE7" style="stroke:#FBC02D;stroke-width:1.0;"/><text fill="#000000" font-family="Verdana" font-size="13" lengthAdjust="spacing" textLength="123" x="1247" y="732.7981">Port 8080 exposed</text><text fill="#000000" font-family="Verdana" font-size="13" lengthAdjust="spacing" textLength="112" x="1247" y="748.5975">REST API (JSON)</text><text fill="#000000" font-family="Verdana" font-size="13" lengthAdjust="spacing" textLength="129" x="1247" y="764.3968">JWT authentication</text><text fill="#000000" font-family="Verdana" font-size="13" lengthAdjust="spacing" textLength="118" x="1247" y="780.1961">Flyway migrations</text></g><!--entity PostgresImage--><g id="elem_PostgresImage"><rect fill="#FFF3E0" height="37.584" rx="2.5" ry="2.5" style="stroke:#333333;stroke-width:1.0;" width="127" x="1161.5" y="1024.2283"/><polygon fill="#FFF3E0" points="1271.5,1029.2283,1271.5,1043.2283,1283.5,1043.2283,1283.5,1035.2283,1277.5,1029.2283,1271.5,1029.2283" style="stroke:#333333;stroke-width:1.0;"/><line style="stroke:#333333;stroke-width:1.0;" x1="1277.5" x2="1277.5" y1="1029.2283" y2="1035.2283"/><line style="stroke:#333333;stroke-width:1.0;" x1="1283.5" x2="1277.5" y1="1035.2283" y2="1035.2283"/><text fill="#000000" font-family="Verdana" font-size="12" lengthAdjust="spacing" textLength="97" x="1171.5" y="1049.2928">postgres:latest</text></g><!--entity PostgresDB--><g id="elem_PostgresDB"><path d="M1324,1024.2283 C1324,1014.2283 1410,1014.2283 1410,1014.2283 C1410,1014.2283 1496,1014.2283 1496,1024.2283 L1496,1062.3963 C1496,1072.3963 1410,1072.3963 1410,1072.3963 C1410,1072.3963 1324,1072.3963 1324,1062.3963 L1324,1024.2283 " fill="#E8F5E9" style="stroke:#333333;stroke-width:1.0;"/><path d="M1324,1024.2283 C1324,1034.2283 1410,1034.2283 1410,1034.2283 C1410,1034.2283 1496,1034.2283 1496,1024.2283 " fill="none" style="stroke:#333333;stroke-width:1.0;"/><text fill="#000000" font-family="Verdana" font-size="12" lengthAdjust="spacing" textLength="74" x="1334" y="1050.2928">PostgreSQL</text><text fill="#000000" font-family="Verdana" font-size="12" lengthAdjust="spacing" textLength="152" x="1334" y="1064.8768">(postgres_data volume)</text></g><g id="elem_GMN21"><path d="M1531.5,1006.7283 L1531.5,1039.2283 L1496.01,1043.2283 L1531.5,1047.2283 L1531.5,1079.9256 A0,0 0 0 0 1531.5,1079.9256 L1692.5,1079.9256 A0,0 0 0 0 1692.5,1079.9256 L1692.5,1016.7283 L1682.5,1006.7283 L1531.5,1006.7283 A0,0 0 0 0 1531.5,1006.7283 " fill="#FFFDE7" style="stroke:#FBC02D;stroke-width:1.0;"/><path d="M1682.5,1006.7283 L1682.5,1016.7283 L1692.5,1016.7283 L1682.5,1006.7283 " fill="#FFFDE7" style="stroke:#FBC02D;stroke-width:1.0;"/><text fill="#000000" font-family="Verdana" font-size="13" lengthAdjust="spacing" textLength="123" x="1537.5" y="1024.7981">Persistent volume:</text><text fill="#000000" font-family="Verdana" font-size="13" lengthAdjust="spacing" textLength="95" x="1537.5" y="1040.5975">postgres_data</text><text fill="#000000" font-family="Verdana" font-size="13" lengthAdjust="spacing" textLength="140" x="1537.5" y="1056.3968">Stores users, games,</text><text fill="#000000" font-family="Verdana" font-size="13" lengthAdjust="spacing" textLength="111" x="1537.5" y="1072.1961">tags, game_tags</text></g><!--entity PgAdminImage--><g id="elem_PgAdminImage"><rect fill="#FFF3E0" height="37.584" rx="2.5" ry="2.5" style="stroke:#333333;stroke-width:1.0;" width="178" x="1498" y="732.2283"/><polygon fill="#FFF3E0" points="1659,737.2283,1659,751.2283,1671,751.2283,1671,743.2283,1665,737.2283,1659,737.2283" style="stroke:#333333;stroke-width:1.0;"/><line style="stroke:#333333;stroke-width:1.0;" x1="1665" x2="1665" y1="737.2283" y2="743.2283"/><line style="stroke:#333333;stroke-width:1.0;" x1="1671" x2="1665" y1="743.2283" y2="743.2283"/><text fill="#000000" font-family="Verdana" font-size="12" lengthAdjust="spacing" textLength="148" x="1508" y="757.2928">dpage/pgadmin4:latest</text></g><g id="elem_GMN26"><path d="M1711,730.2283 L1711,747.2283 L1676.2,751.2283 L1711,755.2283 L1711,771.827 A0,0 0 0 0 1711,771.827 L1855,771.827 A0,0 0 0 0 1855,771.827 L1855,740.2283 L1845,730.2283 L1711,730.2283 A0,0 0 0 0 1711,730.2283 " fill="#FFFDE7" style="stroke:#FBC02D;stroke-width:1.0;"/><path d="M1845,730.2283 L1845,740.2283 L1855,740.2283 L1845,730.2283 " fill="#FFFDE7" style="stroke:#FBC02D;stroke-width:1.0;"/><text fill="#000000" font-family="Verdana" font-size="13" lengthAdjust="spacing" textLength="123" x="1717" y="748.2981">Port 5050 exposed</text><text fill="#000000" font-family="Verdana" font-size="13" lengthAdjust="spacing" textLength="79" x="1717" y="764.0975">DB admin UI</text></g><!--entity GrafanaImage--><g id="elem_GrafanaImage"><rect fill="#FFF3E0" height="37.584" rx="2.5" ry="2.5" style="stroke:#333333;stroke-width:1.0;" width="174" x="268" y="485.2283"/><polygon fill="#FFF3E0" points="425,490.2283,425,504.2283,437,504.2283,437,496.2283,431,490.2283,425,490.2283" style="stroke:#333333;stroke-width:1.0;"/><line style="stroke:#333333;stroke-width:1.0;" x1="431" x2="431" y1="490.2283" y2="496.2283"/><line style="stroke:#333333;stroke-width:1.0;" x1="437" x2="431" y1="496.2283" y2="496.2283"/><text fill="#000000" font-family="Verdana" font-size="12" lengthAdjust="spacing" textLength="144" x="278" y="510.2928">grafana/grafana:latest</text></g><g id="elem_GMN31"><path d="M477,483.2283 L477,500.2283 L442.15,504.2283 L477,508.2283 L477,524.827 A0,0 0 0 0 477,524.827 L621,524.827 A0,0 0 0 0 621,524.827 L621,493.2283 L611,483.2283 L477,483.2283 A0,0 0 0 0 477,483.2283 " fill="#FFFDE7" style="stroke:#FBC02D;stroke-width:1.0;"/><path d="M611,483.2283 L611,493.2283 L621,493.2283 L611,483.2283 " fill="#FFFDE7" style="stroke:#FBC02D;stroke-width:1.0;"/><text fill="#000000" font-family="Verdana" font-size="13" lengthAdjust="spacing" textLength="123" x="483" y="501.2981">Port 3000 exposed</text><text fill="#000000" font-family="Verdana" font-size="13" lengthAdjust="spacing" textLength="88" x="483" y="517.0975">Dashboard UI</text></g><!--entity PrometheusImage--><g id="elem_PrometheusImage"><rect fill="#FFF3E0" height="37.584" rx="2.5" ry="2.5" style="stroke:#333333;stroke-width:1.0;" width="184" x="577" y="732.2283"/><polygon fill="#FFF3E0" points="744,737.2283,744,751.2283,756,751.2283,756,743.2283,750,737.2283,744,737.2283" style="stroke:#333333;stroke-width:1.0;"/><line style="stroke:#333333;stroke-width:1.0;" x1="750" x2="750" y1="737.2283" y2="743.2283"/><line style="stroke:#333333;stroke-width:1.0;" x1="756" x2="750" y1="743.2283" y2="743.2283"/><text fill="#000000" font-family="Verdana" font-size="12" lengthAdjust="spacing" textLength="154" x="587" y="757.2928">prom/prometheus:latest</text></g><!--entity PrometheusDB--><g id="elem_PrometheusDB"><path d="M408.5,732.2283 C408.5,722.2283 475,722.2283 475,722.2283 C475,722.2283 541.5,722.2283 541.5,732.2283 L541.5,770.3963 C541.5,780.3963 475,780.3963 475,780.3963 C475,780.3963 408.5,780.3963 408.5,770.3963 L408.5,732.2283 " fill="#E8F5E9" style="stroke:#333333;stroke-width:1.0;"/><path d="M408.5,732.2283 C408.5,742.2283 475,742.2283 475,742.2283 C475,742.2283 541.5,742.2283 541.5,732.2283 " fill="none" style="stroke:#333333;stroke-width:1.0;"/><text fill="#000000" font-family="Verdana" font-size="12" lengthAdjust="spacing" textLength="113" x="418.5" y="758.2928">prometheus_data</text><text fill="#000000" font-family="Verdana" font-size="12" lengthAdjust="spacing" textLength="55" x="418.5" y="772.8768">(volume)</text></g><!--entity LokiImage--><g id="elem_LokiImage"><rect fill="#FFF3E0" height="37.584" rx="2.5" ry="2.5" style="stroke:#333333;stroke-width:1.0;" width="146" x="293" y="1255.7283"/><polygon fill="#FFF3E0" points="422,1260.7283,422,1274.7283,434,1274.7283,434,1266.7283,428,1260.7283,422,1260.7283" style="stroke:#333333;stroke-width:1.0;"/><line style="stroke:#333333;stroke-width:1.0;" x1="428" x2="428" y1="1260.7283" y2="1266.7283"/><line style="stroke:#333333;stroke-width:1.0;" x1="434" x2="428" y1="1266.7283" y2="1266.7283"/><text fill="#000000" font-family="Verdana" font-size="12" lengthAdjust="spacing" textLength="116" x="303" y="1280.7928">grafana/loki:latest</text></g><!--entity LokiDB--><g id="elem_LokiDB"><path d="M180,1255.7283 C180,1245.7283 219,1245.7283 219,1245.7283 C219,1245.7283 258,1245.7283 258,1255.7283 L258,1293.8963 C258,1303.8963 219,1303.8963 219,1303.8963 C219,1303.8963 180,1303.8963 180,1293.8963 L180,1255.7283 " fill="#E8F5E9" style="stroke:#333333;stroke-width:1.0;"/><path d="M180,1255.7283 C180,1265.7283 219,1265.7283 219,1265.7283 C219,1265.7283 258,1265.7283 258,1255.7283 " fill="none" style="stroke:#333333;stroke-width:1.0;"/><text fill="#000000" font-family="Verdana" font-size="12" lengthAdjust="spacing" textLength="58" x="190" y="1281.7928">loki_data</text><text fill="#000000" font-family="Verdana" font-size="12" lengthAdjust="spacing" textLength="55" x="190" y="1296.3768">(volume)</text></g><!--entity AlloyImage--><g id="elem_AlloyImage"><rect fill="#FFF3E0" height="37.584" rx="2.5" ry="2.5" style="stroke:#333333;stroke-width:1.0;" width="154" x="300" y="1024.2283"/><polygon fill="#FFF3E0" points="437,1029.2283,437,1043.2283,449,1043.2283,449,1035.2283,443,1029.2283,437,1029.2283" style="stroke:#333333;stroke-width:1.0;"/><line style="stroke:#333333;stroke-width:1.0;" x1="443" x2="443" y1="1029.2283" y2="1035.2283"/><line style="stroke:#333333;stroke-width:1.0;" x1="449" x2="443" y1="1035.2283" y2="1035.2283"/><text fill="#000000" font-family="Verdana" font-size="12" lengthAdjust="spacing" textLength="124" x="310" y="1049.2928">grafana/alloy:latest</text></g><!--entity AlloyDB--><g id="elem_AlloyDB"><path d="M179,1024.2283 C179,1014.2283 222,1014.2283 222,1014.2283 C222,1014.2283 265,1014.2283 265,1024.2283 L265,1062.3963 C265,1072.3963 222,1072.3963 222,1072.3963 C222,1072.3963 179,1072.3963 179,1062.3963 L179,1024.2283 " fill="#E8F5E9" style="stroke:#333333;stroke-width:1.0;"/><path d="M179,1024.2283 C179,1034.2283 222,1034.2283 222,1034.2283 C222,1034.2283 265,1034.2283 265,1024.2283 " fill="none" style="stroke:#333333;stroke-width:1.0;"/><text fill="#000000" font-family="Verdana" font-size="12" lengthAdjust="spacing" textLength="66" x="189" y="1050.2928">alloy_data</text><text fill="#000000" font-family="Verdana" font-size="12" lengthAdjust="spacing" textLength="55" x="189" y="1064.8768">(volume)</text></g><!--entity cAdvisorImage--><g id="elem_cAdvisorImage"><rect fill="#FFF3E0" height="37.584" rx="2.5" ry="2.5" style="stroke:#333333;stroke-width:1.0;" width="219" x="561.5" y="1024.2283"/><polygon fill="#FFF3E0" points="763.5,1029.2283,763.5,1043.2283,775.5,1043.2283,775.5,1035.2283,769.5,1029.2283,763.5,1029.2283" style="stroke:#333333;stroke-width:1.0;"/><line style="stroke:#333333;stroke-width:1.0;" x1="769.5" x2="769.5" y1="1029.2283" y2="1035.2283"/><line style="stroke:#333333;stroke-width:1.0;" x1="775.5" x2="769.5" y1="1035.2283" y2="1035.2283"/><text fill="#000000" font-family="Verdana" font-size="12" lengthAdjust="spacing" textLength="189" x="571.5" y="1049.2928">gcr.io/cadvisor/cadvisor:latest</text></g><!--entity DockerEventsImage--><g id="elem_DockerEventsImage"><rect fill="#FFF3E0" height="37.584" rx="2.5" ry="2.5" style="stroke:#333333;stroke-width:1.0;" width="89" x="211.5" y="732.2283"/><polygon fill="#FFF3E0" points="283.5,737.2283,283.5,751.2283,295.5,751.2283,295.5,743.2283,289.5,737.2283,283.5,737.2283" style="stroke:#333333;stroke-width:1.0;"/><line style="stroke:#333333;stroke-width:1.0;" x1="289.5" x2="289.5" y1="737.2283" y2="743.2283"/><line style="stroke:#333333;stroke-width:1.0;" x1="295.5" x2="289.5" y1="743.2283" y2="743.2283"/><text fill="#000000" font-family="Verdana" font-size="12" lengthAdjust="spacing" textLength="59" x="221.5" y="757.2928">docker:cli</text></g><g id="elem_GMN58"><path d="M1975.5,643.7283 L1975.5,859.1194 L2342.5,859.1194 L2342.5,653.7283 L2332.5,643.7283 L1975.5,643.7283 " fill="#FFFDE7" style="stroke:#FBC02D;stroke-width:1.0;"/><path d="M2332.5,643.7283 L2332.5,653.7283 L2342.5,653.7283 L2332.5,643.7283 " fill="#FFFDE7" style="stroke:#FBC02D;stroke-width:1.0;"/><text fill="#000000" font-family="Verdana" font-size="13" font-weight="bold" lengthAdjust="spacing" textLength="68" x="1981.5" y="661.7981">Volumes:</text><text fill="#000000" font-family="Verdana" font-size="13" lengthAdjust="spacing" textLength="235" x="1981.5" y="677.5975">- postgres_data (PostgreSQL data)</text><text fill="#000000" font-family="Verdana" font-size="13" lengthAdjust="spacing" textLength="261" x="1981.5" y="693.3968">- prometheus_data (Prometheus TSDB)</text><text fill="#000000" font-family="Verdana" font-size="13" lengthAdjust="spacing" textLength="192" x="1981.5" y="709.1961">- loki_data (Loki log storage)</text><text fill="#000000" font-family="Verdana" font-size="13" lengthAdjust="spacing" textLength="208" x="1981.5" y="724.9954">- grafana_data (Grafana state)</text><text fill="#000000" font-family="Verdana" font-size="13" lengthAdjust="spacing" textLength="168" x="1981.5" y="740.7947">- alloy_data (Alloy state)</text><text fill="#000000" font-family="Verdana" font-size="13" lengthAdjust="spacing" textLength="5" x="1981.5" y="756.594">&#160;</text><text fill="#000000" font-family="Verdana" font-size="13" font-weight="bold" lengthAdjust="spacing" textLength="65" x="1981.5" y="772.3934">Network:</text><text fill="#000000" font-family="Verdana" font-size="13" lengthAdjust="spacing" textLength="306" x="1981.5" y="788.1927">- gde-network (bridge, shared by all services)</text><text fill="#000000" font-family="Verdana" font-size="13" lengthAdjust="spacing" textLength="5" x="1981.5" y="803.992">&#160;</text><text fill="#000000" font-family="Verdana" font-size="13" font-weight="bold" lengthAdjust="spacing" textLength="107" x="1981.5" y="819.7913">Compose files:</text><text fill="#000000" font-family="Verdana" font-size="13" lengthAdjust="spacing" textLength="187" x="1981.5" y="835.5906">- compose.yaml (app stack)</text><text fill="#000000" font-family="Verdana" font-size="13" lengthAdjust="spacing" textLength="346" x="1981.5" y="851.3899">- compose.observability.yaml (observability overlay)</text></g><g id="elem_DeploymentNote"><path d="M925.5,69.7283 L925.5,206.1229 L1248.5,206.1229 L1248.5,79.7283 L1238.5,69.7283 L925.5,69.7283 " fill="#FFFDE7" style="stroke:#FBC02D;stroke-width:1.0;"/><path d="M1238.5,69.7283 L1238.5,79.7283 L1248.5,79.7283 L1238.5,69.7283 " fill="#FFFDE7" style="stroke:#FBC02D;stroke-width:1.0;"/><text fill="#000000" font-family="Verdana" font-size="13" font-weight="bold" lengthAdjust="spacing" textLength="140" x="931.5" y="87.7981">Deployment Model:</text><text fill="#000000" font-family="Verdana" font-size="13" lengthAdjust="spacing" textLength="225" x="931.5" y="103.5975">- Single Docker host (local or VM)</text><text fill="#000000" font-family="Verdana" font-size="13" lengthAdjust="spacing" textLength="256" x="931.5" y="119.3968">- All services run as Docker containers</text><text fill="#000000" font-family="Verdana" font-size="13" lengthAdjust="spacing" textLength="269" x="931.5" y="135.1961">- Docker Compose orchestrates services</text><text fill="#000000" font-family="Verdana" font-size="13" lengthAdjust="spacing" textLength="302" x="931.5" y="150.9954">- Nginx serves frontend + reverse proxies API</text><text fill="#000000" font-family="Verdana" font-size="13" lengthAdjust="spacing" textLength="235" x="931.5" y="166.7947">- PostgreSQL is the sole data store</text><text fill="#000000" font-family="Verdana" font-size="13" lengthAdjust="spacing" textLength="243" x="931.5" y="182.594">- Observability is an optional overlay</text><text fill="#000000" font-family="Verdana" font-size="13" lengthAdjust="spacing" textLength="251" x="931.5" y="198.3934">- CI/CD works through GitHub Actions</text></g><!--link User to FrontendNode--><g id="link_User_FrontendNode"><path d="M833,177.0483 C833,223.4733 833,304.1108 833,373.5908 C833,382.2758 833,390.7865 833,399.0342 C833,403.1581 833,407.2162 833,411.1975 C833,412.1928 833,407.1833 833,408.1689 " fill="none" id="User-to-FrontendNode" style="stroke:#000000;stroke-width:1.0;"/><polygon fill="#000000" points="833,414.1689,837,405.1689,833,409.1689,829,405.1689,833,414.1689" style="stroke:#000000;stroke-width:1.0;"/><text fill="#000000" font-family="Verdana" font-size="13" lengthAdjust="spacing" textLength="100" x="834" y="249.7981">HTTP (port 80)</text></g><!--link FrontendNode to BackendNode--><g id="link_FrontendNode_BackendNode"><path d="M833,556.9837 C833,557.3765 833,557.7708 833,558.1666 C833,559.7496 833,561.3559 833,562.9835 C833,569.494 833,576.3468 833,583.4279 C833,597.59 833,612.6649 833,627.7396 C833,635.2769 833,642.8142 833,650.2373 C833,651.1652 833,652.0913 833,653.0154 C833,653.2464 833,647.4773 833,647.7081 " fill="none" id="FrontendNode-to-BackendNode" style="stroke:#000000;stroke-width:1.0;"/><polygon fill="#000000" points="833,653.7081,837,644.7081,833,648.7081,829,644.7081,833,653.7081" style="stroke:#000000;stroke-width:1.0;"/><text fill="#000000" font-family="Verdana" font-size="13" lengthAdjust="spacing" textLength="128" x="839.5" y="594.7981">/api/ &#8594; proxy_pass</text><text fill="#000000" font-family="Verdana" font-size="13" lengthAdjust="spacing" textLength="139" x="834" y="610.5975">http://backend:8080</text></g><!--link BackendNode to PostgresNode--><g id="link_BackendNode_PostgresNode"><path d="M834.612,811.7307 C834.6729,812.0938 834.735,812.4572 834.7983,812.8208 C835.0515,814.2755 835.3245,815.7345 835.6184,817.195 C836.2061,820.116 836.8777,823.0432 837.6433,825.9546 C840.7056,837.6002 845.2725,848.9933 852,858.7283 C887.01,909.3983 919.58,895.8283 971,929.7283 C1005.98,952.7883 1044.075,980.4008 1073.745,1002.4983 C1088.58,1013.5471 1101.3088,1023.2171 1110.4888,1030.2499 C1112.7838,1032.0081 1114.857,1033.6015 1116.6858,1035.0104 C1116.9144,1035.1865 1117.1392,1035.3597 1117.3601,1035.53 C1117.4706,1035.6152 1112.8287,1032.0357 1112.9372,1032.1194 " fill="none" id="BackendNode-to-PostgresNode" style="stroke:#000000;stroke-width:1.0;"/><polygon fill="#000000" points="1117.6886,1035.7833,1113.0042,1027.1198,1113.7291,1032.73,1108.1189,1033.455,1117.6886,1035.7833" style="stroke:#000000;stroke-width:1.0;"/><text fill="#000000" font-family="Verdana" font-size="13" lengthAdjust="spacing" textLength="32" x="994.5" y="902.7981">JDBC</text><text fill="#000000" font-family="Verdana" font-size="13" lengthAdjust="spacing" textLength="107" x="957" y="918.5975">(postgres:5432)</text></g><!--link PgAdminNode to PostgresNode--><g id="link_PgAdminNode_PostgresNode"><path d="M1454.9865,781.0381 C1454.8801,781.3523 1454.7725,781.668 1454.6638,781.9854 C1454.2289,783.2547 1453.7754,784.5488 1453.3028,785.8644 C1452.3575,788.4958 1451.3359,791.2133 1450.235,793.9908 C1441.4275,816.2108 1427.54,842.2683 1407,858.7283 C1312.86,934.1783 1226.06,840.3683 1145,929.7283 C1140.8075,934.3496 1137.3591,939.5369 1134.5351,945.0811 C1134.4468,945.2543 1137.044,940.0621 1136.9569,940.2361 " fill="none" id="PgAdminNode-to-PostgresNode" style="stroke:#000000;stroke-width:1.0;"/><polygon fill="#000000" points="1134.2721,945.6019,1141.8765,939.343,1136.5095,941.1304,1134.7221,935.7633,1134.2721,945.6019" style="stroke:#000000;stroke-width:1.0;"/><text fill="#000000" font-family="Verdana" font-size="13" lengthAdjust="spacing" textLength="32" x="1373.5" y="902.7981">JDBC</text><text fill="#000000" font-family="Verdana" font-size="13" lengthAdjust="spacing" textLength="107" x="1336" y="918.5975">(postgres:5432)</text></g><!--link AlloyNode to LokiNode--><g id="link_AlloyNode_LokiNode"><path d="M144.2294,1096.9761 C144.2326,1097.7204 144.2359,1098.4698 144.2392,1099.2239 C144.2655,1105.2569 144.2931,1111.5955 144.3217,1118.1379 C144.3788,1131.2225 144.4394,1145.1221 144.5,1159.0208 C144.5303,1165.9702 144.5606,1172.9194 144.5905,1179.7664 C144.5942,1180.6223 144.598,1181.4766 144.6017,1182.3291 C144.6035,1182.7553 144.6054,1183.1811 144.6072,1183.6064 C144.6082,1183.8191 144.5829,1178.0317 144.5839,1178.2441 " fill="none" id="AlloyNode-to-LokiNode" style="stroke:#000000;stroke-width:1.0;"/><polygon fill="#000000" points="144.61,1184.244,148.5707,1175.2267,144.5882,1179.2441,140.5708,1175.2616,144.61,1184.244" style="stroke:#000000;stroke-width:1.0;"/><text fill="#000000" font-family="Verdana" font-size="13" lengthAdjust="spacing" textLength="62" x="172.5" y="1141.7981">push logs</text><text fill="#000000" font-family="Verdana" font-size="13" lengthAdjust="spacing" textLength="117" x="145" y="1157.5975">(http://loki:3100)</text></g><!--link PrometheusNode to AlloyNode--><g id="link_PrometheusNode_AlloyNode"><path d="M373.6389,804.831 C373.621,805.0945 373.6029,805.3586 373.5843,805.6232 C373.5472,806.1525 373.5086,806.6838 373.4685,807.2173 C373.1475,811.4848 372.7291,815.8838 372.1925,820.3696 C367.9,856.2558 356.045,897.6933 326,921.7283 C311.84,933.0583 176.56,917.6883 163,929.7283 C158.335,933.8721 154.5303,938.6994 151.4449,943.9794 C149.9021,946.6194 148.5392,949.3725 147.3385,952.2099 C147.2634,952.3872 149.4867,947.0223 149.4129,947.2003 " fill="none" id="PrometheusNode-to-AlloyNode" style="stroke:#000000;stroke-width:1.0;"/><polygon fill="#000000" points="147.1152,952.7429,154.2568,945.9607,149.0299,948.124,146.8666,942.8972,147.1152,952.7429" style="stroke:#000000;stroke-width:1.0;"/><text fill="#000000" font-family="Verdana" font-size="13" lengthAdjust="spacing" textLength="97" x="353" y="910.7981">scrape metrics</text></g><!--link PrometheusNode to LokiNode--><g id="link_PrometheusNode_LokiNode"><path d="M370.1053,804.7113 C370.1705,805.4332 370.2411,806.1569 370.3174,806.8817 C370.47,808.3315 370.6452,809.7863 370.8451,811.2428 C371.6445,817.0688 372.8378,822.9224 374.5481,828.5927 C377.9688,839.9333 383.4575,850.5408 392,858.7283 C427.94,893.1783 565,879.9483 614,888.7283 C696.04,903.4383 744.9,864.6683 797,929.7283 C849.78,995.6483 854.34,1057.7383 797,1119.7283 C757.19,1162.7583 329.45,1156.2683 271,1160.7283 C259.11,1161.6383 172.86,1160.7483 164,1168.7283 C159.6638,1172.6333 156.107,1177.1671 153.2037,1182.1157 C152.8407,1182.7343 152.488,1183.3594 152.1453,1183.9905 C152.0596,1184.1483 154.7953,1179.0109 154.7109,1179.1694 " fill="none" id="PrometheusNode-to-LokiNode" style="stroke:#000000;stroke-width:1.0;"/><polygon fill="#000000" points="151.8901,1184.465,159.6516,1178.4022,154.2407,1180.052,152.5909,1174.6411,151.8901,1184.465" style="stroke:#000000;stroke-width:1.0;"/><text fill="#000000" font-family="Verdana" font-size="13" lengthAdjust="spacing" textLength="97" x="839" y="1048.7981">scrape metrics</text></g><!--link PrometheusNode to cAdvisorNode--><g id="link_PrometheusNode_cAdvisorNode"><path d="M371.4882,804.5699 C371.5265,804.9288 371.5662,805.2881 371.6071,805.6479 C371.7707,807.0872 371.9547,808.5336 372.1608,809.9842 C372.9853,815.7864 374.1632,821.6549 375.8011,827.3946 C379.0769,838.8739 384.1925,849.8383 392,858.7283 C421.22,891.9983 456.6,856.5383 487,888.7283 C498.895,901.3208 507.2975,917.0114 513.2061,933.5129 C516.1604,941.7636 518.4912,950.217 520.3234,958.5871 C520.5524,959.6334 520.7736,960.6784 520.9873,961.7215 C521.0407,961.9823 519.9089,956.3611 519.9614,956.6216 " fill="none" id="PrometheusNode-to-cAdvisorNode" style="stroke:#000000;stroke-width:1.0;"/><polygon fill="#000000" points="521.1462,962.5035,523.2902,952.8908,520.1588,957.6019,515.4477,954.4705,521.1462,962.5035" style="stroke:#000000;stroke-width:1.0;"/><text fill="#000000" font-family="Verdana" font-size="13" lengthAdjust="spacing" textLength="97" x="508" y="910.7981">scrape metrics</text></g><!--link GrafanaNode to PrometheusNode--><g id="link_GrafanaNode_PrometheusNode"><path d="M241.943,549.4803 C242.017,549.71 242.0916,549.9397 242.1667,550.1694 C242.317,550.6289 242.4696,551.0885 242.6245,551.5479 C245.1038,558.8983 248.185,566.2158 252,572.7283 C272.65,607.9783 293.14,604.5683 317,637.7283 C333.055,660.0433 346.8725,687.6458 356.765,709.9246 C359.2381,715.4943 361.4659,720.7312 363.4221,725.4696 C363.9111,726.6542 362.1258,722.2485 362.5805,723.3682 " fill="none" id="GrafanaNode-to-PrometheusNode" style="stroke:#000000;stroke-width:1.0;"/><polygon fill="#000000" points="364.8378,728.9274,365.1579,719.0837,362.9567,724.2947,357.7457,722.0935,364.8378,728.9274" style="stroke:#000000;stroke-width:1.0;"/><text fill="#000000" font-family="Verdana" font-size="13" lengthAdjust="spacing" textLength="90" x="294" y="602.7981">query metrics</text></g><!--link GrafanaNode to LokiNode--><g id="link_GrafanaNode_LokiNode"><path d="M224.7502,509.4249 C224.629,509.489 224.5067,509.5538 224.3831,509.6193 C223.3949,510.1435 222.3318,510.7132 221.1993,511.3279 C218.9343,512.5573 216.3917,513.9663 213.6145,515.5491 C202.5059,521.8805 187.6456,530.9939 171.7988,542.5221 C140.105,565.5783 104.465,598.2933 87,637.7283 C29.98,766.4783 43.81,924.0083 72.2263,1050.0771 C86.4344,1113.1114 104.2891,1168.2805 118.7573,1208.0541 C122.3744,1217.9975 125.7798,1226.9787 128.8637,1234.88 C130.4057,1238.8306 131.8672,1242.5113 133.2346,1245.9073 C133.9184,1247.6053 134.5785,1249.2322 135.2135,1250.786 C135.531,1251.5629 135.8421,1252.3216 136.1467,1253.0618 C136.2991,1253.4318 134.1593,1248.2517 134.3083,1248.6125 " fill="none" id="GrafanaNode-to-LokiNode" style="stroke:#000000;stroke-width:1.0;"/><polygon fill="#000000" points="136.5988,1254.1581,136.8602,1244.3128,134.6901,1249.5368,129.466,1247.3667,136.5988,1254.1581" style="stroke:#000000;stroke-width:1.0;"/><text fill="#000000" font-family="Verdana" font-size="13" lengthAdjust="spacing" textLength="68" x="52" y="910.7981">query logs</text></g><!--link DockerEventsNode to AlloyNode--><g id="link_DockerEventsNode_AlloyNode"><path d="M186.3232,794.923 C186.3646,795.1584 186.4059,795.3945 186.4471,795.6312 C186.7762,797.5251 187.0969,799.4616 187.406,801.4366 C188.0243,805.3866 188.5963,809.4905 189.0975,813.7158 C193.1075,847.5183 192.59,889.0883 175,921.7283 C171.96,927.3683 166.49,924.3483 163,929.7283 C159.6063,934.9646 156.76,940.6155 154.3779,946.4998 C153.7824,947.9709 153.2158,949.4565 152.677,950.954 C152.4076,951.7027 154.0717,946.772 153.816,947.5262 " fill="none" id="DockerEventsNode-to-AlloyNode" style="stroke:#000000;stroke-width:1.0;"/><polygon fill="#000000" points="151.8894,953.2085,158.5674,945.9695,153.4949,948.4733,150.9911,943.4007,151.8894,953.2085" style="stroke:#000000;stroke-width:1.0;"/><text fill="#000000" font-family="Verdana" font-size="13" lengthAdjust="spacing" textLength="95" x="204.5" y="902.7981">Docker events</text><text fill="#000000" font-family="Verdana" font-size="13" lengthAdjust="spacing" textLength="130" x="187" y="918.5975">(via Docker socket)</text></g><!--link DockerHost to GMN58--><g id="link_DockerHost_GMN58"><path d="M1951.1305,514.4501 C1951.5032,514.8729 1951.8874,515.3088 1952.283,515.7577 C1953.0743,516.6553 1953.9109,517.6045 1954.7909,518.6029 C1961.8313,526.5899 1971.6487,537.7264 1983.205,550.8346 C2006.3175,577.0508 2036.385,611.1533 2065.1,643.7183 " fill="none" id="DockerHost-GMN58" style="stroke:#000000;stroke-width:1.0;stroke-dasharray:7.0,7.0;"/></g><!--SRC=[bLZRRjms47tNLqpTXthTR7RZ2vhgeS1U7Hk9utgTvAM0mPLeBMj9L4dAzZO8aAT-G94lp9TqUD5rfSOnR4ZYd1cU6GvdIF-WDZIXaCM4fPwdc8efdCuNy86k9LCKldx-0dEQnNoRq5J1d958aCJpv1rBCuAlaFAGmaSFO4g2kqZmF0rdFEO2VbmSBG-NSotX8gJ2ZHwP7nnTybIjsDyKNXnwdse6YL3ibWIgs-XokJnQZB_RQ4WKMHFPn_JbycJnwtSR3MAUXpqqPulZnUoxBQPSqLw_vujVsWQNqzduS8ucl9_WwvVFzXTckLGyeMA8OMHf12G8g9GLmBF4zmeSZE0iLLIaLEq1aUM7OO8hWJFjlPC6DnNy0TyCJ0-rfvxpu0w1hxXKjVbCZkpLP7-a-wzPcZ-YnGyi3T4clYKaUBiQ6DCMQgnyz914my05LGzStFaGXNIOsWyqk1OiZAZLFmsfGrbzW3h9fS3mqpIiCTGGEycj4wB5YuYbZn3WD-uEAgpfGlcYo7lzK-RiNgfrV8dP5jCXYJDKD6h6riJ1ThIkg7wiBYVQZvp52XwOsi1xt89sLWD0kTCqUI9Oj570Rpjj0rnoeU3b6EXZnYKDo_4L5VTK0b9KBD1pmYsBgIpbL_IU2jmfcU2F384Zah4HA0vhp4bqt05r_3GDy_bfDyXJY-wCiRE4pguoeJDqohbg1zePw8ap3MAMIJfKDCdHX7_uOlYdiA4-5_GgJnLBw8uMPipDWorjp_yaeaNWs4viX_J89Ciw0zw5A0FU4VAhnUeQ9fTdi7- -UdinACVFFrm3oR448zi0buEdfMWPRn_85XA6zLOBv1F3FYyANLVSaPMA19NezwLzNVt-kXrt9v4zWIzi-35HLAg6obb2eYBePSNTgwR2UGlr6os7Unxd2MtEEvzsndn7Z077F6LIwSPa3Vcbg35DbVfOoZ2ZSonSyXb49A7oMIbK97A3D_hrYV7EeacOiBGxt5QclRPlnpknjkCzeGup3ESeYuZHRGJSwjNZtOhMBi0bwCduP3T1vrCmay2xioVw_NQDGRmdQnOpjUtq7XFtbgG4lJ-rRstdtN2Fyqvzv9vrxvrYl_ST0EVzqNZSuJsHcpKd8ln_zzsY2coPk6LpiulAZvsLBILz-mW1eyfOOtNBqUuDLMcPz4OUZNrKIjrMQT2F-HtJtHSVRSfwx1kBeRNhJBLADqUDx6AdDRfuaHZFc8YTw6URcHdy1ZLZeCxDA7MJCzWkTaQdYrv0mdickUuOmSI-jaaMutqy0_6SyL5Xg7ofKovCLAmR949p_XbYVqwLpZvt7fgzFcjpiPA50VOL5mFniOtkQDIdrt-jCzxYKHyFIQmdJMbWkbEj0fYJud3uM_EavCEhw-jBmFflckJ0QqWrlDxlVNVg-FhFl-OSiht9Y4INDqfb_cZapW- -RhPDRlResikjFeUUiz7hV3YVJsUr7kMV71yT3hnwaNwoabVbhDOfzvOFMIut4FD8hw3pnsohenTZ34khRcZTof8FCX0aeu0GmGBPXQxDz6rm8sTt5Ee5sZZUDE33NpaLsrvuZOa5QgSzRoStspwwj2xJ_9wHOapgXneqr_ozsS2Gu6r9oSQj0tl2cYkyu-YcKDqfCAaF3goMz0yEy7FOF310_NYa1mOMqwoxK2__rwlvrABAoWUsogBNUDZc0lUK1RYAvJ15SzJdSGUeoXEuUkY4XdXn_N74QvSWS7UWPo0tHD0Grbjj2tIdPdW5T0PcFD7zpnxx2pE17No-9KaC-oJBz9p1tQ0XvFMcxw2DCU1uTuZ9Tk2L3RHvFQp-bP3WOiS6ihDckXoLm0lRXGyEQhflj6x1V8L7yPWM6RBHTyRzc0TO0x16ltzZFPZKmW0YJwkILvLEQP15KNL1uYBOO7aMkaYN5WpGtWwblKqLjqRu6KJh_eJdVeElfHIJW5c3sOoypJBh_A06rJnN8P2am3DTnxH3Dhe6E3iRpUQWbrqR4poFDd3ArAjy3HDRzwer-0y0]--></g></svg>