<?xml version="1.0" encoding="us-ascii" standalone="no"?><svg xmlns="http://www.w3.org/2000/svg" xmlns:xlink="http://www.w3.org/1999/xlink" contentStyleType="text/css" height="1873px" preserveAspectRatio="none" style="width:1845px;height:1873px;background:#FFFFFF;" version="1.1" viewBox="0 0 1845 1873" width="1845px" zoomAndPan="magnify"><defs/><g><text fill="#000000" font-family="Verdana" font-size="22" font-weight="bold" lengthAdjust="spacing" textLength="738" x="552" y="37.1182">GDE Website &#8212; Sequence Diagram: Create Game Workflow</text><line style="stroke:#666666;stroke-width:1.0;" x1="39" x2="39" y1="130.752" y2="1791.7109"/><line style="stroke:#666666;stroke-width:1.0;" x1="249" x2="249" y1="130.752" y2="1791.7109"/><line style="stroke:#666666;stroke-width:1.0;" x1="507.5" x2="507.5" y1="130.752" y2="1791.7109"/><line style="stroke:#666666;stroke-width:1.0;" x1="742.5" x2="742.5" y1="130.752" y2="1791.7109"/><line style="stroke:#666666;stroke-width:1.0;" x1="966.5" x2="966.5" y1="130.752" y2="1791.7109"/><line style="stroke:#666666;stroke-width:1.0;" x1="1182.5" x2="1182.5" y1="130.752" y2="1791.7109"/><line style="stroke:#666666;stroke-width:1.0;" x1="1312.5" x2="1312.5" y1="130.752" y2="1791.7109"/><line style="stroke:#666666;stroke-width:1.0;" x1="1527.5" x2="1527.5" y1="130.752" y2="1791.7109"/><line style="stroke:#666666;stroke-width:1.0;" x1="1788" x2="1788" y1="130.752" y2="1791.7109"/><text fill="#000000" font-family="Verdana" font-size="14" lengthAdjust="spacing" textLength="32" x="20" y="127.8125">User</text><ellipse cx="39" cy="61.7373" fill="#FFFFFF" rx="8" ry="8" style="stroke:#333333;stroke-width:1.0;"/><path d="M39,69.7373 L39,96.7373 M26,77.7373 L52,77.7373 M39,96.7373 L26,111.7373 M39,96.7373 L52,111.7373 " fill="none" style="stroke:#333333;stroke-width:1.0;"/><text fill="#000000" font-family="Verdana" font-size="14" lengthAdjust="spacing" textLength="32" x="20" y="1804.7861">User</text><ellipse cx="39" cy="1816.7256" fill="#FFFFFF" rx="8" ry="8" style="stroke:#333333;stroke-width:1.0;"/><path d="M39,1824.7256 L39,1851.7256 M26,1832.7256 L52,1832.7256 M39,1851.7256 L26,1866.7256 M39,1851.7256 L52,1866.7256 " fill="none" style="stroke:#333333;stroke-width:1.0;"/><rect fill="#E3F2FD" height="48.0293" rx="2.5" ry="2.5" style="stroke:#333333;stroke-width:1.0;" width="98" x="200" y="81.7227"/><text fill="#000000" font-family="Verdana" font-size="14" lengthAdjust="spacing" textLength="58" x="220" y="102.7979">Browser</text><text fill="#000000" font-family="Verdana" font-size="14" lengthAdjust="spacing" textLength="84" x="207" y="119.8125">(React SPA)</text><rect fill="#E3F2FD" height="48.0293" rx="2.5" ry="2.5" style="stroke:#333333;stroke-width:1.0;" width="98" x="200" y="1790.7109"/><text fill="#000000" font-family="Verdana" font-size="14" lengthAdjust="spacing" textLength="58" x="220" y="1811.7861">Browser</text><text fill="#000000" font-family="Verdana" font-size="14" lengthAdjust="spacing" textLength="84" x="207" y="1828.8008">(React SPA)</text><rect fill="#E3F2FD" height="48.0293" rx="2.5" ry="2.5" style="stroke:#333333;stroke-width:1.0;" width="127" x="444.5" y="81.7227"/><text fill="#000000" font-family="Verdana" font-size="14" lengthAdjust="spacing" textLength="40" x="488" y="102.7979">Nginx</text><text fill="#000000" font-family="Verdana" font-size="14" lengthAdjust="spacing" textLength="113" x="451.5" y="119.8125">(Reverse Proxy)</text><rect fill="#E3F2FD" height="48.0293" rx="2.5" ry="2.5" style="stroke:#333333;stroke-width:1.0;" width="127" x="444.5" y="1790.7109"/><text fill="#000000" font-family="Verdana" font-size="14" lengthAdjust="spacing" textLength="40" x="488" y="1811.7861">Nginx</text><text fill="#000000" font-family="Verdana" font-size="14" lengthAdjust="spacing" textLength="113" x="451.5" y="1828.8008">(Reverse Proxy)</text><rect fill="#E3F2FD" height="48.0293" rx="2.5" ry="2.5" style="stroke:#333333;stroke-width:1.0;" width="131" x="677.5" y="81.7227"/><text fill="#000000" font-family="Verdana" font-size="14" lengthAdjust="spacing" textLength="117" x="684.5" y="102.7979">GamesController</text><text fill="#000000" font-family="Verdana" font-size="14" lengthAdjust="spacing" textLength="97" x="694.5" y="119.8125">(Spring Boot)</text><rect fill="#E3F2FD" height="48.0293" rx="2.5" ry="2.5" style="stroke:#333333;stroke-width:1.0;" width="131" x="677.5" y="1790.7109"/><text fill="#000000" font-family="Verdana" font-size="14" lengthAdjust="spacing" textLength="117" x="684.5" y="1811.7861">GamesController</text><text fill="#000000" font-family="Verdana" font-size="14" lengthAdjust="spacing" textLength="97" x="694.5" y="1828.8008">(Spring Boot)</text><rect fill="#E3F2FD" height="48.0293" rx="2.5" ry="2.5" style="stroke:#333333;stroke-width:1.0;" width="83" x="925.5" y="81.7227"/><text fill="#000000" font-family="Verdana" font-size="14" lengthAdjust="spacing" textLength="57" x="938.5" y="102.7979">JwtFilter</text><text fill="#000000" font-family="Verdana" font-size="14" lengthAdjust="spacing" textLength="69" x="932.5" y="119.8125">(Security)</text><rect fill="#E3F2FD" height="48.0293" rx="2.5" ry="2.5" style="stroke:#333333;stroke-width:1.0;" width="83" x="925.5" y="1790.7109"/><text fill="#000000" font-family="Verdana" font-size="14" lengthAdjust="spacing" textLength="57" x="938.5" y="1811.7861">JwtFilter</text><text fill="#000000" font-family="Verdana" font-size="14" lengthAdjust="spacing" textLength="69" x="932.5" y="1828.8008">(Security)</text><rect fill="#E3F2FD" height="48.0293" rx="2.5" ry="2.5" style="stroke:#333333;stroke-width:1.0;" width="69" x="1148.5" y="81.7227"/><text fill="#000000" font-family="Verdana" font-size="14" lengthAdjust="spacing" textLength="53" x="1156.5" y="102.7979">JwtUtils</text><text fill="#000000" font-family="Verdana" font-size="14" lengthAdjust="spacing" textLength="55" x="1155.5" y="119.8125">(Token)</text><rect fill="#E3F2FD" height="48.0293" rx="2.5" ry="2.5" style="stroke:#333333;stroke-width:1.0;" width="69" x="1148.5" y="1790.7109"/><text fill="#000000" font-family="Verdana" font-size="14" lengthAdjust="spacing" textLength="53" x="1156.5" y="1811.7861">JwtUtils</text><text fill="#000000" font-family="Verdana" font-size="14" lengthAdjust="spacing" textLength="55" x="1155.5" y="1828.8008">(Token)</text><rect fill="#E3F2FD" height="48.0293" rx="2.5" ry="2.5" style="stroke:#333333;stroke-width:1.0;" width="130" x="1247.5" y="81.7227"/><text fill="#000000" font-family="Verdana" font-size="14" lengthAdjust="spacing" textLength="98" x="1263.5" y="102.7979">GamesService</text><text fill="#000000" font-family="Verdana" font-size="14" lengthAdjust="spacing" textLength="116" x="1254.5" y="119.8125">(Business Logic)</text><rect fill="#E3F2FD" height="48.0293" rx="2.5" ry="2.5" style="stroke:#333333;stroke-width:1.0;" width="130" x="1247.5" y="1790.7109"/><text fill="#000000" font-family="Verdana" font-size="14" lengthAdjust="spacing" textLength="98" x="1263.5" y="1811.7861">GamesService</text><text fill="#000000" font-family="Verdana" font-size="14" lengthAdjust="spacing" textLength="116" x="1254.5" y="1828.8008">(Business Logic)</text><rect fill="#E3F2FD" height="48.0293" rx="2.5" ry="2.5" style="stroke:#333333;stroke-width:1.0;" width="138" x="1458.5" y="81.7227"/><text fill="#000000" font-family="Verdana" font-size="14" lengthAdjust="spacing" textLength="124" x="1465.5" y="102.7979">GamesRepository</text><text fill="#000000" font-family="Verdana" font-size="14" lengthAdjust="spacing" textLength="36" x="1509.5" y="119.8125">(JPA)</text><rect fill="#E3F2FD" height="48.0293" rx="2.5" ry="2.5" style="stroke:#333333;stroke-width:1.0;" width="138" x="1458.5" y="1790.7109"/><text fill="#000000" font-family="Verdana" font-size="14" lengthAdjust="spacing" textLength="124" x="1465.5" y="1811.7861">GamesRepository</text><text fill="#000000" font-family="Verdana" font-size="14" lengthAdjust="spacing" textLength="36" x="1509.5" y="1828.8008">(JPA)</text><text fill="#000000" font-family="Verdana" font-size="14" lengthAdjust="spacing" textLength="83" x="1744" y="127.8125">PostgreSQL</text><path d="M1770.5,77.7373 C1770.5,67.7373 1788.5,67.7373 1788.5,67.7373 C1788.5,67.7373 1806.5,67.7373 1806.5,77.7373 L1806.5,103.7373 C1806.5,113.7373 1788.5,113.7373 1788.5,113.7373 C1788.5,113.7373 1770.5,113.7373 1770.5,103.7373 L1770.5,77.7373 " fill="#FFFFFF" style="stroke:#000000;stroke-width:1.5;"/><path d="M1770.5,77.7373 C1770.5,87.7373 1788.5,87.7373 1788.5,87.7373 C1788.5,87.7373 1806.5,87.7373 1806.5,77.7373 " fill="none" style="stroke:#000000;stroke-width:1.5;"/><text fill="#000000" font-family="Verdana" font-size="14" lengthAdjust="spacing" textLength="83" x="1744" y="1804.7861">PostgreSQL</text><path d="M1770.5,1817.7256 C1770.5,1807.7256 1788.5,1807.7256 1788.5,1807.7256 C1788.5,1807.7256 1806.5,1807.7256 1806.5,1817.7256 L1806.5,1843.7256 C1806.5,1853.7256 1788.5,1853.7256 1788.5,1853.7256 C1788.5,1853.7256 1770.5,1853.7256 1770.5,1843.7256 L1770.5,1817.7256 " fill="#FFFFFF" style="stroke:#000000;stroke-width:1.5;"/><path d="M1770.5,1817.7256 C1770.5,1827.7256 1788.5,1827.7256 1788.5,1827.7256 C1788.5,1827.7256 1806.5,1827.7256 1806.5,1817.7256 " fill="none" style="stroke:#000000;stroke-width:1.5;"/><rect fill="#FFFFFF" height="3" style="stroke:#FFFFFF;stroke-width:1.0;" width="1833" x="5" y="161.6516"/><line style="stroke:#000000;stroke-width:0.5;" x1="5" x2="1838" y1="161.6516" y2="161.6516"/><line style="stroke:#000000;stroke-width:0.5;" x1="5" x2="1838" y1="164.6516" y2="164.6516"/><rect fill="#FFFFFF" height="23.7993" style="stroke:#000000;stroke-width:1.0;" width="303" x="770" y="150.752"/><text fill="#000000" font-family="Verdana" font-size="13" font-weight="bold" lengthAdjust="spacing" textLength="285" x="776" y="167.8218">1. User navigates to Create Game page</text><polygon fill="#333333" points="237,202.3506,247,206.3506,237,210.3506,241,206.3506" style="stroke:#333333;stroke-width:1.0;"/><line style="stroke:#333333;stroke-width:1.0;" x1="39" x2="243" y1="206.3506" y2="206.3506"/><text fill="#000000" font-family="Verdana" font-size="13" lengthAdjust="spacing" textLength="186" x="46" y="201.6211">Clicks "Create Game" button</text><line style="stroke:#333333;stroke-width:1.0;" x1="249" x2="291" y1="251.9492" y2="251.9492"/><line style="stroke:#333333;stroke-width:1.0;" x1="291" x2="291" y1="251.9492" y2="264.9492"/><line style="stroke:#333333;stroke-width:1.0;" x1="250" x2="291" y1="264.9492" y2="264.9492"/><polygon fill="#333333" points="260,260.9492,250,264.9492,260,268.9492,256,264.9492" style="stroke:#333333;stroke-width:1.0;"/><text fill="#000000" font-family="Verdana" font-size="13" lengthAdjust="spacing" textLength="242" x="256" y="231.4204">ProtectedRoute checks AuthContext</text><text fill="#000000" font-family="Verdana" font-size="13" lengthAdjust="spacing" textLength="128" x="256" y="247.2197">for valid JWT token</text><path d="M254,277.9492 L254,318.9492 L552,318.9492 L552,287.9492 L542,277.9492 L254,277.9492 " fill="#FFFFFF" style="stroke:#000000;stroke-width:1.0;"/><path d="M542,277.9492 L542,287.9492 L552,287.9492 L542,277.9492 " fill="#FFFFFF" style="stroke:#000000;stroke-width:1.0;"/><text fill="#000000" font-family="Verdana" font-size="13" lengthAdjust="spacing" textLength="207" x="260" y="296.019">If no token &#8594; redirect to /auth</text><text fill="#000000" font-family="Verdana" font-size="13" lengthAdjust="spacing" textLength="277" x="260" y="311.8184">If token exists &#8594; render CreateGamePage</text><rect fill="#FFFFFF" height="3" style="stroke:#FFFFFF;stroke-width:1.0;" width="1833" x="5" y="345.4475"/><line style="stroke:#000000;stroke-width:0.5;" x1="5" x2="1838" y1="345.4475" y2="345.4475"/><line style="stroke:#000000;stroke-width:0.5;" x1="5" x2="1838" y1="348.4475" y2="348.4475"/><rect fill="#FFFFFF" height="23.7993" style="stroke:#000000;stroke-width:1.0;" width="306" x="768.5" y="334.5479"/><text fill="#000000" font-family="Verdana" font-size="13" font-weight="bold" lengthAdjust="spacing" textLength="288" x="774.5" y="351.6177">2. User fills in game details and submits</text><polygon fill="#333333" points="237,417.7451,247,421.7451,237,425.7451,241,421.7451" style="stroke:#333333;stroke-width:1.0;"/><line style="stroke:#333333;stroke-width:1.0;" x1="39" x2="243" y1="421.7451" y2="421.7451"/><text fill="#000000" font-family="Verdana" font-size="13" lengthAdjust="spacing" textLength="142" x="46" y="385.417">Fills title, description,</text><text fill="#000000" font-family="Verdana" font-size="13" lengthAdjust="spacing" textLength="113" x="46" y="401.2163">banner URL, tags</text><text fill="#000000" font-family="Verdana" font-size="13" lengthAdjust="spacing" textLength="125" x="46" y="417.0156">and clicks "Submit"</text><line style="stroke:#333333;stroke-width:1.0;" x1="249" x2="291" y1="451.5444" y2="451.5444"/><line style="stroke:#333333;stroke-width:1.0;" x1="291" x2="291" y1="451.5444" y2="464.5444"/><line style="stroke:#333333;stroke-width:1.0;" x1="250" x2="291" y1="464.5444" y2="464.5444"/><polygon fill="#333333" points="260,460.5444,250,464.5444,260,468.5444,256,464.5444" style="stroke:#333333;stroke-width:1.0;"/><text fill="#000000" font-family="Verdana" font-size="13" lengthAdjust="spacing" textLength="133" x="256" y="446.8149">Validates form fields</text><rect fill="#FFFFFF" height="3" style="stroke:#FFFFFF;stroke-width:1.0;" width="1833" x="5" y="493.4441"/><line style="stroke:#000000;stroke-width:0.5;" x1="5" x2="1838" y1="493.4441" y2="493.4441"/><line style="stroke:#000000;stroke-width:0.5;" x1="5" x2="1838" y1="496.4441" y2="496.4441"/><rect fill="#FFFFFF" height="23.7993" style="stroke:#000000;stroke-width:1.0;" width="356" x="743.5" y="482.5444"/><text fill="#000000" font-family="Verdana" font-size="13" font-weight="bold" lengthAdjust="spacing" textLength="338" x="749.5" y="499.6143">3. Frontend sends authenticated POST request</text><polygon fill="#333333" points="496,565.7417,506,569.7417,496,573.7417,500,569.7417" style="stroke:#333333;stroke-width:1.0;"/><line style="stroke:#333333;stroke-width:1.0;" x1="249" x2="502" y1="569.7417" y2="569.7417"/><text fill="#000000" font-family="Verdana" font-size="13" lengthAdjust="spacing" textLength="114" x="256" y="533.4136">POST /api/games</text><text fill="#000000" font-family="Verdana" font-size="13" lengthAdjust="spacing" textLength="235" x="256" y="549.2129">{title, description, bannerUrl, tags}</text><text fill="#000000" font-family="Verdana" font-size="13" lengthAdjust="spacing" textLength="191" x="256" y="565.0122">Authorization: Bearer &lt;JWT&gt;</text><polygon fill="#333333" points="731,611.3403,741,615.3403,731,619.3403,735,615.3403" style="stroke:#333333;stroke-width:1.0;"/><line style="stroke:#333333;stroke-width:1.0;" x1="508" x2="737" y1="615.3403" y2="615.3403"/><text fill="#000000" font-family="Verdana" font-size="13" lengthAdjust="spacing" textLength="186" x="515" y="594.8115">proxy_pass &#8594; POST /games</text><text fill="#000000" font-family="Verdana" font-size="13" lengthAdjust="spacing" textLength="211" x="515" y="610.6108">(forwards Authorization header)</text><rect fill="#FFFFFF" height="3" style="stroke:#FFFFFF;stroke-width:1.0;" width="1833" x="5" y="644.24"/><line style="stroke:#000000;stroke-width:0.5;" x1="5" x2="1838" y1="644.24" y2="644.24"/><line style="stroke:#000000;stroke-width:0.5;" x1="5" x2="1838" y1="647.24" y2="647.24"/><rect fill="#FFFFFF" height="23.7993" style="stroke:#000000;stroke-width:1.0;" width="247" x="798" y="633.3403"/><text fill="#000000" font-family="Verdana" font-size="13" font-weight="bold" lengthAdjust="spacing" textLength="229" x="804" y="650.4102">4. Backend validates JWT token</text><polygon fill="#333333" points="955,684.939,965,688.939,955,692.939,959,688.939" style="stroke:#333333;stroke-width:1.0;"/><line style="stroke:#333333;stroke-width:1.0;" x1="743" x2="961" y1="688.939" y2="688.939"/><text fill="#000000" font-family="Verdana" font-size="13" lengthAdjust="spacing" textLength="200" x="750" y="684.2095">Filter chain intercepts request</text><polygon fill="#333333" points="1171,714.7383,1181,718.7383,1171,722.7383,1175,718.7383" style="stroke:#333333;stroke-width:1.0;"/><line style="stroke:#333333;stroke-width:1.0;" x1="967" x2="1177" y1="718.7383" y2="718.7383"/><text fill="#000000" font-family="Verdana" font-size="13" lengthAdjust="spacing" textLength="128" x="974" y="714.0088">Validate JWT token</text><polygon fill="#333333" points="978,744.5376,968,748.5376,978,752.5376,974,748.5376" style="stroke:#333333;stroke-width:1.0;"/><line style="stroke:#333333;stroke-width:1.0;stroke-dasharray:2.0,2.0;" x1="972" x2="1182" y1="748.5376" y2="748.5376"/><text fill="#000000" font-family="Verdana" font-size="13" lengthAdjust="spacing" textLength="192" x="984" y="743.8081">Token valid &#8594; extract userId</text><polygon fill="#333333" points="754,790.1362,744,794.1362,754,798.1362,750,794.1362" style="stroke:#333333;stroke-width:1.0;"/><line style="stroke:#333333;stroke-width:1.0;stroke-dasharray:2.0,2.0;" x1="748" x2="966" y1="794.1362" y2="794.1362"/><text fill="#000000" font-family="Verdana" font-size="13" lengthAdjust="spacing" textLength="184" x="760" y="773.6074">Set Authentication principal</text><text fill="#000000" font-family="Verdana" font-size="13" lengthAdjust="spacing" textLength="53" x="760" y="789.4067">(userId)</text><rect fill="#FFFFFF" height="3" style="stroke:#FFFFFF;stroke-width:1.0;" width="1833" x="5" y="823.0359"/><line style="stroke:#000000;stroke-width:0.5;" x1="5" x2="1838" y1="823.0359" y2="823.0359"/><line style="stroke:#000000;stroke-width:0.5;" x1="5" x2="1838" y1="826.0359" y2="826.0359"/><rect fill="#FFFFFF" height="23.7993" style="stroke:#000000;stroke-width:1.0;" width="285" x="779" y="812.1362"/><text fill="#000000" font-family="Verdana" font-size="13" font-weight="bold" lengthAdjust="spacing" textLength="267" x="785" y="829.2061">5. Backend processes game creation</text><line style="stroke:#333333;stroke-width:1.0;" x1="743" x2="785" y1="883.5342" y2="883.5342"/><line style="stroke:#333333;stroke-width:1.0;" x1="785" x2="785" y1="883.5342" y2="896.5342"/><line style="stroke:#333333;stroke-width:1.0;" x1="744" x2="785" y1="896.5342" y2="896.5342"/><polygon fill="#333333" points="754,892.5342,744,896.5342,754,900.5342,750,896.5342" style="stroke:#333333;stroke-width:1.0;"/><text fill="#000000" font-family="Verdana" font-size="13" lengthAdjust="spacing" textLength="141" x="750" y="863.0054">Check authentication</text><text fill="#000000" font-family="Verdana" font-size="13" lengthAdjust="spacing" textLength="202" x="750" y="878.8047">(if null &#8594; 401 UNAUTHORIZED)</text><polygon fill="#333333" points="1300.5,922.3335,1310.5,926.3335,1300.5,930.3335,1304.5,926.3335" style="stroke:#333333;stroke-width:1.0;"/><line style="stroke:#333333;stroke-width:1.0;" x1="743" x2="1306.5" y1="926.3335" y2="926.3335"/><text fill="#000000" font-family="Verdana" font-size="13" lengthAdjust="spacing" textLength="192" x="750" y="921.604">createGame(request, userId)</text><rect fill="#FFFFFF" height="3" style="stroke:#FFFFFF;stroke-width:1.0;" width="1833" x="5" y="955.2332"/><line style="stroke:#000000;stroke-width:0.5;" x1="5" x2="1838" y1="955.2332" y2="955.2332"/><line style="stroke:#000000;stroke-width:0.5;" x1="5" x2="1838" y1="958.2332" y2="958.2332"/><rect fill="#FFFFFF" height="23.7993" style="stroke:#000000;stroke-width:1.0;" width="282" x="780.5" y="944.3335"/><text fill="#000000" font-family="Verdana" font-size="13" font-weight="bold" lengthAdjust="spacing" textLength="264" x="786.5" y="961.4033">6. Service layer creates game entity</text><polygon fill="#333333" points="1515.5,1027.5308,1525.5,1031.5308,1515.5,1035.5308,1519.5,1031.5308" style="stroke:#333333;stroke-width:1.0;"/><line style="stroke:#333333;stroke-width:1.0;" x1="1312.5" x2="1521.5" y1="1031.5308" y2="1031.5308"/><text fill="#000000" font-family="Verdana" font-size="13" lengthAdjust="spacing" textLength="120" x="1319.5" y="995.2026">Save GamesEntity</text><text fill="#000000" font-family="Verdana" font-size="13" lengthAdjust="spacing" textLength="191" x="1319.5" y="1011.002">(title, description, bannerUrl,</text><text fill="#000000" font-family="Verdana" font-size="13" lengthAdjust="spacing" textLength="147" x="1319.5" y="1026.8013">authorId, timestamps)</text><polygon fill="#333333" points="1776.5,1088.9287,1786.5,1092.9287,1776.5,1096.9287,1780.5,1092.9287" style="stroke:#333333;stroke-width:1.0;"/><line style="stroke:#333333;stroke-width:1.0;" x1="1527.5" x2="1782.5" y1="1092.9287" y2="1092.9287"/><text fill="#000000" font-family="Verdana" font-size="13" lengthAdjust="spacing" textLength="133" x="1534.5" y="1056.6006">INSERT INTO games</text><text fill="#000000" font-family="Verdana" font-size="13" lengthAdjust="spacing" textLength="198" x="1534.5" y="1072.3999">(title, description, banner_url,</text><text fill="#000000" font-family="Verdana" font-size="13" lengthAdjust="spacing" textLength="237" x="1534.5" y="1088.1992">author_id, created_at, updated_at)</text><polygon fill="#333333" points="1538.5,1118.728,1528.5,1122.728,1538.5,1126.728,1534.5,1122.728" style="stroke:#333333;stroke-width:1.0;"/><line style="stroke:#333333;stroke-width:1.0;stroke-dasharray:2.0,2.0;" x1="1532.5" x2="1787.5" y1="1122.728" y2="1122.728"/><text fill="#000000" font-family="Verdana" font-size="13" lengthAdjust="spacing" textLength="216" x="1544.5" y="1117.9985">Game saved (with generated ID)</text><rect fill="#FFFFFF" height="3" style="stroke:#FFFFFF;stroke-width:1.0;" width="1833" x="5" y="1151.6277"/><line style="stroke:#000000;stroke-width:0.5;" x1="5" x2="1838" y1="1151.6277" y2="1151.6277"/><line style="stroke:#000000;stroke-width:0.5;" x1="5" x2="1838" y1="1154.6277" y2="1154.6277"/><rect fill="#FFFFFF" height="23.7993" style="stroke:#000000;stroke-width:1.0;" width="187" x="828" y="1140.728"/><text fill="#000000" font-family="Verdana" font-size="13" font-weight="bold" lengthAdjust="spacing" textLength="169" x="834" y="1157.7979">7. Service handles tags</text><line style="stroke:#333333;stroke-width:1.0;" x1="1312.5" x2="1354.5" y1="1212.126" y2="1212.126"/><line style="stroke:#333333;stroke-width:1.0;" x1="1354.5" x2="1354.5" y1="1212.126" y2="1225.126"/><line style="stroke:#333333;stroke-width:1.0;" x1="1313.5" x2="1354.5" y1="1225.126" y2="1225.126"/><polygon fill="#333333" points="1323.5,1221.126,1313.5,1225.126,1323.5,1229.126,1319.5,1225.126" style="stroke:#333333;stroke-width:1.0;"/><text fill="#000000" font-family="Verdana" font-size="13" lengthAdjust="spacing" textLength="124" x="1319.5" y="1191.5972">Resolve tag names</text><text fill="#000000" font-family="Verdana" font-size="13" lengthAdjust="spacing" textLength="157" x="1319.5" y="1207.3965">&#8594; TagEntity references</text><polygon fill="#333333" points="1515.5,1266.7246,1525.5,1270.7246,1515.5,1274.7246,1519.5,1270.7246" style="stroke:#333333;stroke-width:1.0;"/><line style="stroke:#333333;stroke-width:1.0;" x1="1312.5" x2="1521.5" y1="1270.7246" y2="1270.7246"/><text fill="#000000" font-family="Verdana" font-size="13" lengthAdjust="spacing" textLength="138" x="1319.5" y="1250.1958">Save GameTagEntity</text><text fill="#000000" font-family="Verdana" font-size="13" lengthAdjust="spacing" textLength="117" x="1319.5" y="1265.9951">(game_id, tag_id)</text><polygon fill="#333333" points="1776.5,1312.3232,1786.5,1316.3232,1776.5,1320.3232,1780.5,1316.3232" style="stroke:#333333;stroke-width:1.0;"/><line style="stroke:#333333;stroke-width:1.0;" x1="1527.5" x2="1782.5" y1="1316.3232" y2="1316.3232"/><text fill="#000000" font-family="Verdana" font-size="13" lengthAdjust="spacing" textLength="163" x="1534.5" y="1295.7944">INSERT INTO game_tags</text><text fill="#000000" font-family="Verdana" font-size="13" lengthAdjust="spacing" textLength="117" x="1534.5" y="1311.5938">(game_id, tag_id)</text><polygon fill="#333333" points="1538.5,1342.1226,1528.5,1346.1226,1538.5,1350.1226,1534.5,1346.1226" style="stroke:#333333;stroke-width:1.0;"/><line style="stroke:#333333;stroke-width:1.0;stroke-dasharray:2.0,2.0;" x1="1532.5" x2="1787.5" y1="1346.1226" y2="1346.1226"/><text fill="#000000" font-family="Verdana" font-size="13" lengthAdjust="spacing" textLength="74" x="1544.5" y="1341.3931">Tags linked</text><rect fill="#FFFFFF" height="3" style="stroke:#FFFFFF;stroke-width:1.0;" width="1833" x="5" y="1375.0222"/><line style="stroke:#000000;stroke-width:0.5;" x1="5" x2="1838" y1="1375.0222" y2="1375.0222"/><line style="stroke:#000000;stroke-width:0.5;" x1="5" x2="1838" y1="1378.0222" y2="1378.0222"/><rect fill="#FFFFFF" height="23.7993" style="stroke:#000000;stroke-width:1.0;" width="186" x="828.5" y="1364.1226"/><text fill="#000000" font-family="Verdana" font-size="13" font-weight="bold" lengthAdjust="spacing" textLength="168" x="834.5" y="1381.1924">8. Response flows back</text><polygon fill="#333333" points="754,1415.7212,744,1419.7212,754,1423.7212,750,1419.7212" style="stroke:#333333;stroke-width:1.0;"/><line style="stroke:#333333;stroke-width:1.0;stroke-dasharray:2.0,2.0;" x1="748" x2="1311.5" y1="1419.7212" y2="1419.7212"/><text fill="#000000" font-family="Verdana" font-size="13" lengthAdjust="spacing" textLength="151" x="760" y="1414.9917">Games entity (with ID)</text><polygon fill="#333333" points="519,1461.3198,509,1465.3198,519,1469.3198,515,1465.3198" style="stroke:#333333;stroke-width:1.0;"/><line style="stroke:#333333;stroke-width:1.0;stroke-dasharray:2.0,2.0;" x1="513" x2="742" y1="1465.3198" y2="1465.3198"/><text fill="#000000" font-family="Verdana" font-size="13" lengthAdjust="spacing" textLength="121" x="525" y="1444.791">HTTP 201 Created</text><text fill="#000000" font-family="Verdana" font-size="13" lengthAdjust="spacing" textLength="86" x="525" y="1460.5903">{game data}</text><polygon fill="#333333" points="260,1506.9185,250,1510.9185,260,1514.9185,256,1510.9185" style="stroke:#333333;stroke-width:1.0;"/><line style="stroke:#333333;stroke-width:1.0;stroke-dasharray:2.0,2.0;" x1="254" x2="507" y1="1510.9185" y2="1510.9185"/><text fill="#000000" font-family="Verdana" font-size="13" lengthAdjust="spacing" textLength="121" x="266" y="1490.3896">HTTP 201 Created</text><text fill="#000000" font-family="Verdana" font-size="13" lengthAdjust="spacing" textLength="86" x="266" y="1506.189">{game data}</text><rect fill="#FFFFFF" height="3" style="stroke:#FFFFFF;stroke-width:1.0;" width="1833" x="5" y="1539.8181"/><line style="stroke:#000000;stroke-width:0.5;" x1="5" x2="1838" y1="1539.8181" y2="1539.8181"/><line style="stroke:#000000;stroke-width:0.5;" x1="5" x2="1838" y1="1542.8181" y2="1542.8181"/><rect fill="#FFFFFF" height="23.7993" style="stroke:#000000;stroke-width:1.0;" width="185" x="829" y="1528.9185"/><text fill="#000000" font-family="Verdana" font-size="13" font-weight="bold" lengthAdjust="spacing" textLength="167" x="835" y="1545.9883">9. Frontend updates UI</text><line style="stroke:#333333;stroke-width:1.0;" x1="249" x2="291" y1="1600.3164" y2="1600.3164"/><line style="stroke:#333333;stroke-width:1.0;" x1="291" x2="291" y1="1600.3164" y2="1613.3164"/><line style="stroke:#333333;stroke-width:1.0;" x1="250" x2="291" y1="1613.3164" y2="1613.3164"/><polygon fill="#333333" points="260,1609.3164,250,1613.3164,260,1617.3164,256,1613.3164" style="stroke:#333333;stroke-width:1.0;"/><text fill="#000000" font-family="Verdana" font-size="13" lengthAdjust="spacing" textLength="120" x="256" y="1579.7876">Update state with</text><text fill="#000000" font-family="Verdana" font-size="13" lengthAdjust="spacing" textLength="102" x="256" y="1595.5869">new game data</text><polygon fill="#333333" points="50,1654.915,40,1658.915,50,1662.915,46,1658.915" style="stroke:#333333;stroke-width:1.0;"/><line style="stroke:#333333;stroke-width:1.0;stroke-dasharray:2.0,2.0;" x1="44" x2="248" y1="1658.915" y2="1658.915"/><text fill="#000000" font-family="Verdana" font-size="13" lengthAdjust="spacing" textLength="156" x="56" y="1638.3862">Show success message</text><text fill="#000000" font-family="Verdana" font-size="13" lengthAdjust="spacing" textLength="158" x="56" y="1654.1855">/ redirect to game page</text><path d="M10,1671.915 L10,1775.915 L1818,1775.915 L1818,1681.915 L1808,1671.915 L10,1671.915 " fill="#FFFFFF" style="stroke:#000000;stroke-width:1.0;"/><path d="M1808,1671.915 L1808,1681.915 L1818,1681.915 L1808,1671.915 " fill="#FFFFFF" style="stroke:#000000;stroke-width:1.0;"/><text fill="#000000" font-family="Verdana" font-size="13" font-weight="bold" lengthAdjust="spacing" textLength="304" x="708.5" y="1689.9849">Key architecture decisions demonstrated:</text><text fill="#000000" font-family="Verdana" font-size="13" lengthAdjust="spacing" textLength="386" x="708.5" y="1705.7842">1. Stateless JWT authentication (no server-side sessions)</text><text fill="#000000" font-family="Verdana" font-size="13" lengthAdjust="spacing" textLength="397" x="708.5" y="1721.5835">2. Nginx reverse proxy for frontend-backend communication</text><text fill="#000000" font-family="Verdana" font-size="13" lengthAdjust="spacing" textLength="402" x="708.5" y="1737.3828">3. Service layer pattern (Controller &#8594; Service &#8594; Repository)</text><text fill="#000000" font-family="Verdana" font-size="13" lengthAdjust="spacing" textLength="258" x="708.5" y="1753.1821">4. JPA/Hibernate ORM with PostgreSQL</text><text fill="#000000" font-family="Verdana" font-size="13" lengthAdjust="spacing" textLength="318" x="708.5" y="1768.9814">5. Tag-based game categorization via join table</text><!--SRC=[ZLRRRXit47tVhvYgBxRXIsAdIHlK0NnJhDIrLLqQe31WKBlKYlMAt9AKP2S8qAT-GD4lp9Vq3BcILhAIrW_IMdlcTkPmXj_uaHnBAWkXT99uvGj9RyylwBqSEEKbVVxp7-hAFoPIfvBEbSYj6B-cCoi5NhuLC7rlxFsmCBCaSVTAbm80SdEBZmdHYRLcTcOAO-dRe_37FwRUs5DZCsdNNrsfeRnIMgwyVHd-yBOjh5UfAeNsfoAzpwsPwAm2NHmr3vldQw2DCQwDbq_Ccytc-SMh-TkwNVFqxDaXEsuQxRlgWwJdXycd915S1JNwJje62KVya9JBuDGuHUtuyLPlTIJGr6sVR0TezM8LVPqh_H2mKscTfBOr3uyH7rwjefb-TuQCh2cA4ADRMgLpEZN6Hwi8yRPOjNmtyqrL-6WZqubLlWgpUFF4eEzLuO3lcNkf5-3mwuQqkj9ELIg1FvquDDCvkZAvIcjfTQVf1iEEB0sKP-mZRD_DsLgyIZBXnK20cqRRE9zRsVtbAa2gVrsI71_Jy_tG2z9Ygd98rP4tAwejHIxf-3X90cplpRmV174NAhrtrAZ16pIOU6zqCaUj6A1BNgPUPXqpWK4wacn_Cl4ZRevyyBTw29bCHQ4oUlU-Xrn0OP9ec95L-SYJ6Iu4GTGQaZOHH9__-fkip9H50AxXGC1jn4I0V53Ekmgd8TcgJ4wxZI8J_4WSAV1oMF4oL4NXI6dAcOnCUe4saW3KJGPZ1OURkMa6kp0cTc7cKgjAhupUlTK3eJKm_SxLBdcHGohiBgt8x0QtZSq4_ihCX2w1fp6IaqKM-tYqJqtB979c-42Eg5zgY0RuZDettHxgnhHnFgHSynzE3BU7CGUYL0TSBFBwk25_YkdtRH6p_tIhkO76gW-20Q_fL0eBnp-YWM-Iw1j15WSCWKe-hNUbSB4TCMuLSmkLpOJDeYuMRcaa1Ngs7OfziKyyaxZMwOAHXLv2USjmYBqugx4n_92ECCVHLpodiaGRAswI9JOQXdDRexwcoyNRlRKOuUHNCkO2eMpBCsq2mbjPFSGQCLtfGzbLtxXk7bHyxWjG4-qZ1zyjEG2TAUO6E0WYJLdMRFg4XtgeCpvyTP700Y4KZjIaA4BQBvuzf_xrIRztUTDf_NPnlht16sOJdAMBaxHLyRXBzMHVxbCrvwWGZqn_CAWIvWJyup9TzZdtpwECYH7JE63SHG0Zqwzh4uSgoAULGQOATbwCIrTL49mYmdmI8a3hkdlHwU6hTqDp9Nuvmjsa5k9E8KOiABiJN7cPLS_RoIB4tbf5ORWwb9NHrapv4UKIZiDPRPr7rbujMHjXH1Gyd77YDXCL6z6HpXIW2ZYCz506Tx8dyiWRP3wKbcySxh-vNbY12-Oa50hF-Fx_HDx54VVKmHUPwN6DXTBtCWiqVB_FPPL6OvVn_ScX2P3kAWjhwWxFSs55Vbkh-gtDlSjUhqs747jS21a6NvpssA2VvXDiPGv_tOAJ_g4sZwCUSEbfhK_UfST-m11aYa_EznOwcz72wz8APlreqnsP6TPGoeUVK9Z35hlL1ojhC9_ly6gBcYcl7jZlBky1H3ixFyb74ZOTALxG4ykhBbKEadTu6kFB1ss-tja179U6BYTQS62UXwjZXBQmbH42eVQSob0LSEng6xPOh95HMrtTmZBWVKR3Yh2zGJNOKZCUJtJb5RP7wsEa51vZ506NbximkUOeVbxUapWyLWVkIWUNQW0xvlgcytFWcvQt9C0mNI73FRu_PTLK1JXVhgEf4lIxmGh19QketHt-1G00]--></g></svg>